<svg width="15" height="15" viewBox="0 0 15 15" fill="none" xmlns="http://www.w3.org/2000/svg">
<path d="M15 7.5C15 3.35785 11.6422 0 7.5 0C3.35785 0 0 3.35785 0 7.5C0 11.6422 3.35785 15 7.5 15H15V13.75H11.6406C13.7375 12.3618 14.9991 10.015 15 7.5ZM11.1737 12.5565C10.336 13.165 9.16321 12.9794 8.55469 12.1414C7.94617 11.3037 8.13171 10.1312 8.96942 9.5224C9.80743 8.91388 10.9799 9.09943 11.5884 9.93744C12.1973 10.7751 12.0114 11.9476 11.1737 12.5565ZM11.0815 4.36493C12.0663 4.0448 13.1241 4.58374 13.4442 5.56854C13.764 6.55365 13.2251 7.61139 12.2403 7.93121C11.2555 8.25134 10.1978 7.7124 9.87762 6.7276C9.5578 5.7428 10.0967 4.68475 11.0815 4.36493ZM7.5 1.25C8.53546 1.25 9.375 2.08954 9.375 3.125C9.375 4.16046 8.53546 5 7.5 5C6.46454 5 5.625 4.16046 5.625 3.125C5.625 2.08954 6.46454 1.25 7.5 1.25ZM1.55579 5.56854C1.87592 4.58374 2.93365 4.0448 3.91846 4.36462C4.90326 4.68475 5.4422 5.74249 5.12238 6.72729C4.80225 7.7121 3.74451 8.25104 2.7597 7.93121C1.7749 7.61139 1.23596 6.55365 1.55579 5.56854ZM6.44531 12.1414C5.83679 12.9794 4.664 13.165 3.82629 12.5565C2.98859 11.9476 2.80273 10.7751 3.41156 9.93744C4.02008 9.09973 5.19287 8.91388 6.03058 9.52271C6.86829 10.1312 7.05383 11.3037 6.44531 12.1414ZM6.875 7.5C6.875 7.15485 7.15485 6.875 7.5 6.875C7.84515 6.875 8.125 7.15485 8.125 7.5C8.125 7.84515 7.84515 8.125 7.5 8.125C7.15485 8.125 6.875 7.84515 6.875 7.5Z" fill="black"/>
</svg>
