<svg width="125" height="136" viewBox="0 0 125 136" fill="none" xmlns="http://www.w3.org/2000/svg">
<path d="M62.4998 125.172C97.0175 125.172 125 97.1511 125 62.5859C125 28.0207 97.0175 0 62.4998 0C27.9821 0 0 28.0207 0 62.5859C0 97.1511 27.9821 125.172 62.4998 125.172Z" fill="#FFC9D7"/>
<path d="M111.241 74.9429C110.186 74.2619 107.014 71.8857 108.101 66.0926C108.504 63.9474 107.038 63.1649 105.744 62.4732C103.979 61.5298 102.455 60.7155 104.233 56.9344C106.459 52.206 105.365 48.0596 101.383 46.1118C98.2954 44.6036 95.0521 41.638 92.375 37.9717C91.3642 35.8747 90.5609 33.8611 90.0068 32.3722C72.7168 28.7984 43.5697 36.1379 34.6805 39.5646L33.5803 38.1451C33.0008 42.4321 29.2575 45.5465 26.9412 48.3805C24.1361 51.8132 22.8985 55.4468 24.6559 59.3128C25.3509 60.8467 25.8892 62.2108 25.4059 63.3727C24.9974 64.353 23.8414 65.1901 21.8654 65.9249C19.9108 66.6518 18.7131 67.5965 18.2093 68.8113C17.4962 70.5251 18.3257 72.3516 19.0559 73.9613C19.5714 75.0978 19.4855 76.8107 19.1771 77.6899C18.0336 80.9343 16.8905 82.1129 17.4588 84.4117C17.3071 81.9804 18.6835 80.7149 19.7214 78.0078C20.108 76.9974 20.3021 75.3447 19.3416 73.2442C18.6586 71.7515 18.1839 70.5148 18.7905 69.0539C19.2243 68.009 20.3013 67.1797 22.0857 66.5159C24.262 65.7055 25.5022 64.7828 25.9889 63.6123C26.1727 63.1696 26.2067 62.7059 26.1852 62.2332C27.2101 64.5272 27.1921 66.4019 23.0544 68.2314C15.4509 71.5953 22.8435 76.7715 21.7172 79.023C19.7841 82.8881 19.2256 83.6361 19.5328 86.6563C19.882 90.1175 22.3293 92.1685 24.7736 92.865C24.8062 92.3208 22.3465 89.1423 24.4424 83.8925C24.8943 86.7858 27.7007 93.5911 28.4911 93.7674C41.0979 96.5807 78.7618 100.002 92.4446 93.6621C95.0581 92.4507 94.5693 86.5884 95.2914 84.98C95.8146 83.816 98.1915 93.9322 99.0794 92.9974C111.097 80.3479 108.437 76.393 106.993 76.2308C104.985 76.0084 103.704 76.1684 105.907 67.0227C106.975 62.5872 98.7327 64.8684 102.063 57.7887C104.059 53.5451 103.186 49.9261 99.3569 47.3855C98.0158 46.4951 96.7923 45.1366 95.6741 43.5953C97.4496 44.9577 99.2534 46.101 100.961 46.936C104.655 48.7427 105.756 52.2176 103.665 56.6642C101.63 60.99 103.746 62.1209 105.447 63.0307C106.761 63.7336 107.814 64.2907 107.484 65.9769C106.217 72.4372 110.624 74.7459 111.241 74.9429ZM24.9093 58.1905C23.8174 55.0167 24.7315 52.086 27.1827 49.0864C28.5612 47.4001 30.6966 46.0068 32.3724 44.2659C30.1274 49.9506 24.9884 53.8531 24.9093 58.1905Z" fill="#752912"/>
<path d="M29.9161 127.224C29.2717 128.019 23.4372 123.42 24.0352 122.585C32.9704 110.102 42.845 93.0302 44.7407 89.5333L53.1913 96.33C47.9071 103.432 38.4388 116.726 29.9161 127.224Z" fill="#FFC19F"/>
<path d="M32.2225 105.004C35.2196 106.797 41.5339 110.921 44.8911 111.927C49.3879 106.163 53.6175 88.5758 53.6115 88.017C49.6637 88.2669 45.0762 88.7874 43.8068 89.4765C41.5584 92.443 35.4477 100.167 32.2225 105.004Z" fill="#08919A"/>
<path d="M92.653 119.236C93.2973 120.033 99.0356 115.494 98.5339 114.597C93.8201 106.177 89.0854 99.4302 87.1888 95.9329L77.7811 100.195C83.0666 107.297 87.4448 112.79 92.653 119.236Z" fill="#FFC19F"/>
<path d="M95.022 105.061C92.0258 106.854 85.7106 110.978 82.3539 111.984C77.8571 106.22 73.6275 88.6325 73.6335 88.0738C77.5813 88.3237 82.1691 88.8446 83.4377 89.5333C85.6857 92.5002 91.7959 100.225 95.022 105.061Z" fill="#08919A"/>
<path d="M42.0554 131.707C52.3407 137.783 72.4603 137.223 84.915 131.201C84.915 131.201 80.9857 97.0797 79.3838 89.0907C70.7382 86.7019 54.6226 87.3618 46.706 88.7108C45.5582 98.9049 43.4008 116.653 42.0554 131.707Z" fill="#08919A"/>
<path d="M72.8594 89.4451C72.8826 88.9289 72.7958 88.4321 72.6721 87.9426C67.381 87.5847 59.4343 87.4694 53.7665 87.9223C53.7236 88.1447 53.629 88.3525 53.6187 88.5839C53.4405 92.575 57.603 96.0026 62.9165 96.2409C68.2299 96.4792 72.6811 93.4358 72.8594 89.4451Z" fill="#FFC19F"/>
<path d="M70.038 78.3877L69.916 89.6581C69.8898 92.082 66.7921 94.0139 62.9968 93.9726C59.2015 93.9313 56.1472 91.9323 56.1734 89.5088L56.2954 78.2384L70.038 78.3877Z" fill="#FFC19F"/>
<path opacity="0.19" d="M73.0763 82.9905C73.0987 82.4945 73.0158 82.017 72.8964 81.5468C67.8119 81.2027 60.1753 81.0922 54.7296 81.5275C54.6867 81.7426 54.5969 81.9409 54.587 82.1633C54.4152 85.9982 58.4162 89.2924 63.5222 89.5191C68.6281 89.7458 72.9054 86.8258 73.0763 82.9905Z" fill="#601805"/>
<path d="M98.7911 67.1466C97.1523 73.6288 90.896 77.7338 86.1672 77.132C81.4384 76.5302 80.4968 71.2254 81.2885 64.9854C82.0802 58.7454 86.5594 54.1581 91.2847 54.7754C97.7447 55.6206 100.331 61.0537 98.7911 67.1466Z" fill="#FFC19F"/>
<path d="M93.1182 68.5846C92.7702 71.3209 90.5352 73.2906 88.1248 72.9839C85.7144 72.6772 84.0438 70.2102 84.3918 67.4739C84.7397 64.7376 86.9744 62.7687 89.383 63.075C91.7917 63.3813 93.4649 65.8487 93.1182 68.5846Z" fill="#E0956C"/>
<path d="M28.7442 67.9957C30.5385 74.4366 36.8932 78.3885 41.6057 77.6744C46.3181 76.9604 47.1313 71.6323 46.1897 65.4147C45.248 59.197 40.6593 54.7147 35.9486 55.4486C29.5118 56.4474 27.0572 61.9441 28.7442 67.9957Z" fill="#FFC19F"/>
<path d="M34.7977 69.2918C35.211 72.019 37.4929 73.9337 39.8946 73.5689C42.2964 73.2042 43.9082 70.6967 43.4945 67.9699C43.0808 65.243 40.7993 63.3288 38.3976 63.6936C35.9958 64.0584 34.3845 66.565 34.7977 69.2918Z" fill="#E0956C"/>
<path d="M32.4888 42.8709C30.3861 63.9827 45.8954 77.7743 63.6154 77.5592C81.3354 77.3441 95.7442 61.8065 93.7003 41.2961C92.565 29.91 80.5218 21.1083 63.5944 21.4223C45.8761 21.7523 33.9842 27.8559 32.4888 42.8709Z" fill="#752912"/>
<path d="M37.8572 38.5056C36.2965 42.0828 37.7386 73.4472 41.4119 77.7768C45.3082 82.3697 60.9619 86.6224 64.2404 86.5824C67.7526 86.5393 82.9862 82.3727 85.8945 77.2374C89.3345 71.1604 90.5601 43.2284 89.3989 39.9191C85.4739 28.7425 75.7195 28.4827 62.9672 28.6371C51.0374 28.7821 41.9055 29.2234 37.8572 38.5056Z" fill="#FFC19F"/>
<path d="M41.6456 69.5443C41.5597 70.8159 43.2574 71.9648 45.4354 72.1102C47.6133 72.2556 49.4463 71.3419 49.5309 70.0704C49.6156 68.7988 47.9183 67.6498 45.7416 67.5044C43.565 67.359 41.7303 68.2727 41.6456 69.5443Z" fill="#FF9797"/>
<path d="M77.9426 70.1646C78.0362 71.4362 79.8757 72.3365 82.0523 72.1761C84.229 72.0156 85.9185 70.8554 85.8236 69.5839C85.7286 68.3123 83.8905 67.4124 81.7143 67.5728C79.538 67.7333 77.8494 68.8939 77.9426 70.1646Z" fill="#FF9797"/>
<path d="M73.9948 70.6808C73.5734 68.4805 70.1965 69.05 64.6807 69.0135C64.3921 69.0135 63.2696 69.0135 62.9809 69.0135C57.4652 69.05 54.0887 68.4805 53.6669 70.6808C52.8554 74.9188 58.18 79.5483 63.7821 79.565H63.8779C69.4813 79.5483 74.8063 74.9188 73.9948 70.6808Z" fill="#701608"/>
<path d="M63.8779 79.6532H63.7803C61.9637 79.6468 60.08 79.1306 58.3247 78.1657L58.2178 78.1089L58.3084 78.028C59.7634 76.7216 61.7244 76.0011 63.8289 76.0011C65.9334 76.0011 67.891 76.7216 69.3498 78.028L69.4404 78.1089L69.3335 78.1657C67.5791 79.1306 65.692 79.6468 63.8779 79.6532Z" fill="#DD6B5B"/>
<path d="M63.8314 71.838C59.9769 71.838 56.7679 70.6421 56.3667 69.0539L56.3431 68.9567H71.3198L71.2966 69.0539C70.8915 70.6438 67.6826 71.838 63.8314 71.838Z" fill="white"/>
<path d="M61.4074 66.568C61.4766 66.5671 61.5433 66.5417 61.5956 66.4963C61.6479 66.4509 61.6825 66.3883 61.693 66.3198C61.849 65.299 62.645 64.6314 63.7206 64.618C64.7963 64.6047 65.6335 65.2663 65.7882 66.2634C65.7941 66.3014 65.8074 66.3379 65.8273 66.3708C65.8473 66.4036 65.8736 66.4322 65.9046 66.4549C65.9356 66.4777 65.9708 66.494 66.0081 66.5031C66.0454 66.5122 66.0842 66.5138 66.1222 66.5079C66.1601 66.502 66.1966 66.4887 66.2294 66.4687C66.2622 66.4487 66.2908 66.4224 66.3134 66.3914C66.3361 66.3603 66.3525 66.3251 66.3615 66.2877C66.3706 66.2503 66.3723 66.2115 66.3664 66.1735C66.1679 64.8963 65.0776 64.0158 63.7137 64.0321C62.358 64.0485 61.3137 64.932 61.114 66.2307C61.1024 66.3075 61.1216 66.3858 61.1675 66.4484C61.2134 66.5111 61.2822 66.553 61.3588 66.5649L61.4074 66.568Z" fill="#C4735B"/>
<path d="M43.2488 48.9195C43.4524 48.907 43.6442 48.8193 43.7871 48.6734C45.6858 46.7476 49.4746 46.0064 52.6075 46.9558C52.7124 46.9899 52.8231 47.0027 52.933 46.9935C53.0429 46.9843 53.1499 46.9532 53.2477 46.902C53.3454 46.8509 53.432 46.7807 53.5024 46.6956C53.5727 46.6105 53.6254 46.5122 53.6573 46.4065C53.6893 46.3008 53.6998 46.1897 53.6883 46.0798C53.6768 45.97 53.6436 45.8635 53.5905 45.7667C53.5374 45.6699 53.4656 45.5846 53.3792 45.5159C53.2928 45.4473 53.1936 45.3965 53.0874 45.3667C49.3501 44.2367 44.94 45.137 42.6057 47.509C42.488 47.6287 42.4093 47.7813 42.38 47.9468C42.3508 48.1122 42.3724 48.2827 42.442 48.4356C42.5116 48.5885 42.626 48.7166 42.7699 48.803C42.9138 48.8894 43.0805 48.93 43.2479 48.9195H43.2488Z" fill="#8C2F22"/>
<path d="M83.4235 48.6364C83.5913 48.6393 83.756 48.5911 83.8959 48.4982C84.0357 48.4054 84.1441 48.2721 84.2067 48.1162C84.2693 47.9603 84.2831 47.789 84.2463 47.625C84.2096 47.4611 84.124 47.3121 84.0009 47.1979C81.5596 44.9344 77.1152 44.2367 73.4333 45.5349C73.2279 45.6097 73.0603 45.7626 72.967 45.9604C72.8736 46.1583 72.862 46.385 72.9347 46.5914C73.0074 46.7978 73.1585 46.967 73.3551 47.0624C73.5518 47.1578 73.7781 47.1716 73.9849 47.1007C77.0705 46.0085 80.8925 46.5729 82.8745 48.4149C83.0239 48.5541 83.2195 48.633 83.4235 48.6364Z" fill="#8C2F22"/>
<path d="M84.3368 30.8073C79.6931 28.3407 71.0337 27.0648 63.2683 27.0218C54.8263 26.9719 46.1244 28.0972 41.4888 31.086C38.4229 33.0622 34.7531 47.9121 36.2304 46.6973C37.9216 45.3074 40.6121 44.0732 43.8541 43.0572C44.2519 41.4225 46.5011 37.3437 46.9414 36.803C46.7782 37.668 46.5153 40.7128 46.392 42.3349C50.4377 41.2926 55.0694 40.5712 59.5907 40.2761C59.4893 38.5507 60.3343 36.3061 60.3377 36.1895C60.8635 36.7058 61.9272 39.1207 62.3812 40.1471C63.062 40.1293 63.735 40.1224 64.4002 40.1264C70.5041 40.1626 75.0198 40.5704 78.6192 41.2814C78.3971 35.9504 78.364 34.2843 78.3309 34.6478C78.9882 35.7779 79.8344 39.0355 79.9053 41.5568C81.155 41.8426 82.3871 42.2008 83.5954 42.6296C83.7028 41.078 84.0417 38.5688 84.0885 38.1434C84.5653 38.4312 85.4765 41.8605 85.7965 43.517C87.6707 44.3606 89.3375 45.3379 91.0545 46.425C92.9296 47.6118 88.0793 32.7951 84.3368 30.8073Z" fill="#752912"/>
<path d="M70.3546 64.9716C70.3546 64.9716 79.2038 67.8692 82.6125 63.2165C86.7682 57.5478 80.4977 53.0039 76.4056 53.8544C72.6189 54.6411 69.1616 57.9005 70.3546 64.9716Z" fill="#F9FEFF"/>
<path d="M83.3295 55.9493C81.701 53.8686 79.4964 53.2022 77.1006 53.4255C74.652 53.6535 72.1571 55.3759 71.4435 57.168C72.7752 55.1552 75.052 54.4312 76.4661 54.1379C78.7206 53.6647 81.664 54.6997 82.9794 56.7464C84.1474 58.5669 84.0284 61.2851 82.503 63.3658C84.2952 61.9544 85.0263 58.1182 83.3295 55.9493Z" fill="#773220"/>
<path d="M72.414 59.0189C72.1171 59.7501 72.0433 60.5531 72.2021 61.3262C72.361 62.0993 72.7452 62.8079 73.3062 63.3624C73.8672 63.9169 74.5798 64.2923 75.3538 64.4412C76.1279 64.5901 76.9287 64.5058 77.6549 64.1989C78.3812 63.892 79.0002 63.3764 79.4338 62.7172C79.8673 62.058 80.0959 61.2849 80.0907 60.4956C80.0854 59.7063 79.8465 58.9362 79.4042 58.2829C78.9619 57.6296 78.3361 57.1222 77.6058 56.8251C76.6268 56.4266 75.5298 56.4339 74.5562 56.8453C73.5825 57.2567 72.8119 58.0386 72.414 59.0189Z" fill="#63190D"/>
<path d="M74.196 59.8213C74.7585 59.5833 75.0219 58.9338 74.7843 58.3705C74.5466 57.8071 73.898 57.5434 73.3354 57.7813C72.7729 58.0193 72.5095 58.6688 72.7471 59.2322C72.9847 59.7955 73.6334 60.0592 74.196 59.8213Z" fill="#FEFFFE"/>
<path d="M56.9617 64.9157C56.9617 64.9157 48.0751 67.6894 44.7295 62.9899C40.6533 57.263 46.9861 52.8078 51.0662 53.715C54.8426 54.5547 58.2539 57.861 56.9617 64.9157Z" fill="#F9FEFF"/>
<path d="M44.1174 55.7131C45.7743 53.6556 47.9879 53.0198 50.3823 53.2762C52.8309 53.5386 55.298 55.298 55.9866 57.0952C54.6837 55.0644 52.4181 54.3091 51.0069 53.9955C48.7594 53.493 45.8 54.4846 44.458 56.5124C43.2647 58.3191 43.3459 61.0364 44.8421 63.137C43.0658 61.7045 42.3875 57.8575 44.1174 55.7131Z" fill="#773220"/>
<path d="M47.774 58.9299C47.477 59.6611 47.4033 60.464 47.5621 61.2372C47.7209 62.0103 48.1051 62.7189 48.6661 63.2734C49.2271 63.8279 49.9397 64.2033 50.7138 64.3522C51.4879 64.5011 52.2887 64.4167 53.0149 64.1099C53.7412 63.803 54.3602 63.2874 54.7938 62.6282C55.2273 61.969 55.4559 61.1958 55.4507 60.4065C55.4454 59.6172 55.2065 58.8472 54.7642 58.1939C54.3219 57.5405 53.6961 57.0332 52.9658 56.7361C51.9868 56.3378 50.8899 56.3452 49.9163 56.7566C48.9427 57.168 48.1721 57.9497 47.774 58.9299Z" fill="#63190D"/>
<path d="M48.1008 58.298C48.0187 58.5008 47.9985 58.7235 48.0428 58.9378C48.087 59.1521 48.1937 59.3485 48.3494 59.5021C48.5051 59.6557 48.7027 59.7597 48.9174 59.8008C49.132 59.842 49.354 59.8185 49.5554 59.7333C49.7567 59.6481 49.9283 59.5051 50.0484 59.3223C50.1686 59.1395 50.2319 58.9251 50.2305 58.7063C50.229 58.4875 50.1628 58.274 50.0402 58.0928C49.9176 57.9116 49.7441 57.7709 49.5416 57.6885C49.4071 57.6336 49.263 57.6059 49.1177 57.6068C48.9725 57.6078 48.8288 57.6374 48.695 57.694C48.5611 57.7506 48.4398 57.8331 48.3378 57.9368C48.2359 58.0404 48.1553 58.1632 48.1008 58.298Z" fill="#FEFFFE"/>
<path d="M26.6074 41.894C26.6074 41.894 24.3105 46.1798 27.0267 46.4809C29.7429 46.782 32.1674 45.0183 32.4393 42.541C32.7113 40.0637 30.7339 37.8091 28.0177 37.508C25.3015 37.2069 26.6074 41.894 26.6074 41.894Z" fill="#FF5758"/>
<path d="M41.1928 43.5114C41.1928 43.5114 42.4979 48.1964 39.7813 47.8953C37.0646 47.5941 35.0851 45.3418 35.3592 42.8623C35.6333 40.3828 38.0574 38.6213 40.7719 38.9224C43.4863 39.2235 41.1928 43.5114 41.1928 43.5114Z" fill="#FF5758"/>
<path d="M35.693 42.9651C35.5641 44.142 34.6191 45.0037 33.5847 44.8888C32.5502 44.774 31.817 43.7274 31.9476 42.5496C32.0781 41.3718 33.0215 40.5114 34.0559 40.6263C35.0903 40.7411 35.8236 41.7882 35.693 42.9651Z" fill="#FF5758"/>
<path d="M30.2632 89.9936C30.5402 91.2234 29.7296 92.4541 28.4529 92.7423C27.1762 93.0306 25.9184 92.2692 25.6396 91.0376C25.3609 89.806 26.1732 88.577 27.4499 88.2888C28.7266 88.0006 29.9865 88.7637 30.2632 89.9936Z" fill="#FFF3C0"/>
<path d="M15.4918 100.752L25.2491 126.892C25.5013 128.01 30.9255 127.741 36.5306 126.475C42.1357 125.21 47.151 123.123 46.8989 122.004L44.5087 94.1998L15.4918 100.752Z" fill="#EFE4E4"/>
<path d="M36.5307 126.475C36.9237 126.386 37.3129 126.292 37.6987 126.196L31.5158 97.1318L28.5088 97.8106L35.3794 126.718C35.7615 126.642 36.1452 126.562 36.5307 126.475Z" fill="#EC3633"/>
<path d="M42.485 94.6562L41.9493 94.7771L45.3907 123.474C46.4088 122.914 46.9865 122.398 46.8972 122.004L44.5289 94.3921L42.485 94.6562Z" fill="#EC3633"/>
<path d="M40.518 125.41C41.3342 125.156 42.0958 124.894 42.799 124.627L38.2752 95.6998L36.291 96.0564L35.2514 96.2912L40.518 125.41Z" fill="#EC3633"/>
<path d="M18.0611 100.171L17.5267 100.292L15.5562 100.937L25.25 126.893C25.3389 127.29 26.0868 127.509 27.2531 127.574L18.0611 100.171Z" fill="#EC3633"/>
<path d="M24.7607 98.6584L23.7216 98.8955L21.7751 99.428L30.0887 127.501C30.8379 127.438 31.6395 127.348 32.484 127.227L24.7607 98.6584Z" fill="#EC3633"/>
<path opacity="0.15" d="M26.555 124.591L16.7332 100.472L15.4918 100.752L25.2491 126.892C25.5009 128.011 30.9255 127.741 36.5306 126.475C41.8337 125.278 46.5531 123.355 46.8374 122.202C36.9559 125.733 27.5542 126.297 26.555 124.591Z" fill="#7C0404"/>
<path opacity="0.15" d="M17.4962 106.133C20.3314 106.42 25.6117 105.503 31.6395 103.595C37.7395 101.663 42.7483 99.2387 44.861 97.3606L44.5087 94.2015L15.4918 100.752L17.4962 106.133Z" fill="#601D1D"/>
<path d="M15.0588 100.882L15.3668 102.252C15.7384 103.901 22.7323 103.726 30.9879 101.862C39.2434 99.9984 45.6364 97.1499 45.2648 95.501L44.9564 94.1318L15.0588 100.882Z" fill="#EFE4E4"/>
<path d="M44.9564 94.1318C45.3275 95.7811 38.9359 98.6292 30.6799 100.493C22.4238 102.357 15.4299 102.532 15.0588 100.882C14.6876 99.2332 21.0793 96.385 29.3349 94.5211C37.5904 92.6572 44.5848 92.4825 44.9564 94.1318Z" fill="white"/>
<path d="M43.5379 94.2187C43.821 95.4765 37.9706 97.8687 30.4702 99.5627C22.9698 101.257 16.6602 101.609 16.3767 100.351C16.0932 99.0934 21.944 96.7008 29.4448 95.0072C36.9456 93.3136 43.2544 92.9592 43.5379 94.2187Z" fill="#FFF3C0"/>
<path d="M20.3035 98.3199C20.5578 99.4495 19.7021 100.604 18.3966 100.901C17.0911 101.198 15.823 100.52 15.5687 99.3906C15.3144 98.2614 16.1679 97.1064 17.4756 96.8096C18.7832 96.5128 20.0492 97.1907 20.3035 98.3199Z" fill="#FFF3C0"/>
<path d="M20.916 98.4124C21.1703 99.5416 20.3954 100.678 19.1848 100.95C17.9743 101.222 16.7869 100.53 16.5326 99.4018C16.2783 98.2739 17.0533 97.1356 18.2638 96.8638C19.4744 96.5919 20.6626 97.2828 20.916 98.4124Z" fill="#EFC57B"/>
<path d="M21.1269 95.8413C21.3812 96.9709 20.6368 98.1009 19.4645 98.3655C18.2922 98.63 17.1357 97.9293 16.881 96.8001C16.6263 95.6709 17.3711 94.5409 18.5435 94.2759C19.7158 94.0109 20.8722 94.7108 21.1269 95.8413Z" fill="#FFF3C0"/>
<path d="M24.7706 95.914C25.0872 97.3206 24.1602 98.7277 22.7001 99.0577C21.2399 99.3876 19.8 98.5144 19.483 97.1077C19.1659 95.7011 20.0934 94.294 21.5535 93.9645C23.0136 93.635 24.454 94.5078 24.7706 95.914Z" fill="#FFF3C0"/>
<path d="M27.4069 92.9785C27.684 94.2084 26.8734 95.4391 25.5962 95.7273C24.3191 96.0155 23.0617 95.2541 22.7829 94.0225C22.5041 92.791 23.3169 91.562 24.5936 91.2738C25.8703 90.9856 27.1298 91.7487 27.4069 92.9785Z" fill="#FFF3C0"/>
<path d="M33.3853 91.1095C33.6619 92.3397 32.8518 93.5704 31.5746 93.8587C30.2975 94.1469 29.0401 93.3855 28.7614 92.1535C28.4826 90.9215 29.2949 89.6929 30.572 89.4047C31.8491 89.1165 33.1082 89.8779 33.3853 91.1095Z" fill="#FFF3C0"/>
<path d="M43.7647 92.8301C44.0422 94.0604 43.2316 95.2911 41.9545 95.5793C40.6774 95.8675 39.42 95.1061 39.1412 93.8742C38.8624 92.6422 39.6752 91.414 40.9519 91.1258C42.2286 90.8376 43.4881 91.6016 43.7647 92.8301Z" fill="#FFF3C0"/>
<path d="M41.0713 92.2098C41.3608 93.4935 40.4364 94.7956 39.0093 95.1182C37.5823 95.4408 36.1879 94.6618 35.8983 93.3786C35.6088 92.0954 36.5337 90.7928 37.9603 90.4698C39.3869 90.1467 40.7826 90.9262 41.0713 92.2098Z" fill="#EFC57B"/>
<path d="M40.4621 92.3711C40.7392 93.6006 39.9282 94.8313 38.6515 95.1195C37.3748 95.4077 36.117 94.6463 35.8386 93.4152C35.5603 92.184 36.3721 90.9542 37.6488 90.666C38.9255 90.3777 40.1851 91.1409 40.4621 92.3711Z" fill="#FFF3C0"/>
<path d="M36.4379 92.9162C36.7145 94.1456 35.9043 95.3763 34.6276 95.6645C33.351 95.9527 32.091 95.1913 31.8144 93.9598C31.5377 92.7282 32.3479 91.4992 33.6246 91.211C34.9013 90.9228 36.1608 91.6872 36.4379 92.9162Z" fill="#FFF3C0"/>
<path d="M33.3166 93.2719C33.5937 94.5022 32.783 95.7324 31.5063 96.0211C30.2296 96.3097 28.9719 95.5479 28.6931 94.3159C28.4143 93.0839 29.2266 91.8558 30.5033 91.5676C31.78 91.2794 33.0399 92.0425 33.3166 93.2719Z" fill="#FFF3C0"/>
<path d="M29.7824 93.6475C30.0595 94.8773 29.2485 96.1085 27.9718 96.3967C26.6951 96.6849 25.4373 95.9235 25.1589 94.6915C24.8806 93.4595 25.6925 92.2309 26.9692 91.9427C28.2459 91.6545 29.5054 92.4185 29.7824 93.6475Z" fill="#FFF3C0"/>
<path d="M32.064 95.1401C32.341 96.3704 31.5304 97.6011 30.2537 97.8893C28.977 98.1775 27.7192 97.4161 27.4404 96.1841C27.1616 94.9521 27.974 93.724 29.2507 93.4358C30.5274 93.1476 31.7886 93.9107 32.064 95.1401Z" fill="#EFC57B"/>
<path d="M34.366 93.7244C34.6139 94.8261 33.8879 95.9282 32.7444 96.1867C31.6009 96.4453 30.4728 95.7613 30.2245 94.6592C29.9762 93.5571 30.7026 92.4559 31.8461 92.1973C32.9897 91.9388 34.116 92.6228 34.366 93.7244Z" fill="#EFC57B"/>
<path d="M27.9082 95.2055C28.1849 96.4353 27.3747 97.666 26.098 97.9543C24.8213 98.2425 23.5635 97.4811 23.2847 96.2495C23.0059 95.0179 23.8187 93.7889 25.0954 93.5007C26.3721 93.2125 27.6312 93.9756 27.9082 95.2055Z" fill="#FFF3C0"/>
<path d="M33.6568 93.1764C33.8961 94.2385 33.1959 95.301 32.0936 95.5501C30.9913 95.7992 29.9027 95.1397 29.6643 94.0781C29.4259 93.0164 30.1248 91.953 31.2275 91.704C32.3303 91.4549 33.4179 92.1143 33.6568 93.1764Z" fill="#FFF3C0"/>
<path d="M31.5407 95.067C31.8178 96.2968 31.0072 97.5275 29.7305 97.8162C28.4538 98.1048 27.196 97.343 26.9172 96.111C26.6384 94.879 27.4507 93.6504 28.7274 93.3622C30.0041 93.074 31.2641 93.8363 31.5407 95.067Z" fill="#FFF3C0"/>
<path d="M27.2566 96.3252C27.0551 95.4301 26.1397 94.8738 25.2083 95.0838C24.277 95.2937 23.6945 96.2065 23.896 97.1017C23.4973 96.7489 22.9359 96.6023 22.3628 96.7317C21.4332 96.9417 20.843 97.8377 21.0449 98.7329C21.2468 99.628 22.1618 100.184 23.0927 99.9739C23.3486 99.9148 23.588 99.7992 23.7937 99.6358C23.9981 99.8852 24.268 100.072 24.573 100.176C24.8781 100.28 25.206 100.296 25.5198 100.223C26.4494 100.013 27.0392 99.1174 26.8377 98.2218C26.813 98.1143 26.7776 98.0095 26.732 97.9091C27.1685 97.5151 27.391 96.9223 27.2566 96.3252Z" fill="#EFC57B"/>
<path d="M26.711 95.193C26.4936 94.2299 25.5082 93.6324 24.5077 93.8595C23.5386 94.0785 22.9183 94.9913 23.0798 95.9243C22.6885 95.7241 22.2396 95.6672 21.8108 95.7634C20.8108 95.9893 20.1763 96.9528 20.3932 97.9143C20.6102 98.8757 21.596 99.4749 22.5965 99.2478C22.8482 99.1905 23.0857 99.0827 23.2946 98.9308C23.6786 99.3097 24.2212 99.5136 24.7861 99.3863C24.9959 99.339 25.1943 99.2507 25.37 99.1266C25.5457 99.0024 25.6953 98.8449 25.8102 98.6628C25.9251 98.4808 26.0031 98.2779 26.0396 98.0656C26.0762 97.8534 26.0706 97.6361 26.0232 97.426C25.9962 97.3039 25.9283 97.2066 25.8772 97.0982C26.5216 96.7016 26.8811 95.9497 26.711 95.193Z" fill="#FFF3C0"/>
<path d="M21.2726 97.9194C21.5355 99.0878 20.6991 100.272 19.4044 100.564C18.1096 100.857 16.8471 100.146 16.5838 98.9785C16.3204 97.8106 17.1573 96.6264 18.452 96.3338C19.7467 96.0413 21.0093 96.7515 21.2726 97.9194Z" fill="#FFF3C0"/>
<path d="M98.1726 104.522L94.2059 126.725C94.1535 127.435 91.0451 127.781 87.2631 127.499C83.4811 127.217 80.4586 126.412 80.5119 125.702L79.8821 103.154L98.1726 104.522Z" fill="#F93D3B"/>
<g opacity="0.2">
<path opacity="0.2" d="M81.8642 124.211C82.036 124.958 82.7689 126.419 93.8197 126.85C93.9426 126.855 94.0169 126.845 94.1307 126.845C93.7441 127.469 90.8178 127.764 87.2644 127.498C83.4841 127.216 80.4599 126.412 80.5132 125.701L79.8821 103.154L80.2722 103.183L81.8642 124.211Z" fill="#A61B00"/>
</g>
<path opacity="0.22" d="M97.981 105.595C96.1931 106.022 92.8343 106.235 88.9599 106.093C85.0379 105.949 81.6632 105.482 79.9307 104.915L79.8813 103.155L98.1717 104.522L97.981 105.595Z" fill="#A61B00"/>
<path d="M99.5756 101.52L99.3449 104.609L99.2981 104.606C98.7766 105.226 94.3236 105.41 88.9406 105.008C83.5576 104.606 79.1811 103.76 78.7575 103.072L78.7103 103.069L78.9405 99.9782L99.5756 101.52Z" fill="#FF5758"/>
<path d="M78.9401 99.9773C78.8873 100.687 83.4635 101.608 89.1618 102.034C94.8602 102.459 99.5223 102.229 99.5752 101.517C99.628 100.805 95.0517 99.8874 89.3513 99.4611C83.6508 99.0348 78.9929 99.2676 78.9401 99.9773Z" fill="#FF7586"/>
<path d="M89.5334 101.501C89.4974 101.499 89.4616 101.493 89.4264 101.485C89.3357 101.464 89.25 101.425 89.1742 101.371C89.0984 101.317 89.034 101.248 88.9848 101.169C88.9355 101.09 88.9024 101.002 88.8872 100.91C88.872 100.818 88.8751 100.724 88.8963 100.633L90.7104 92.5638C90.743 92.4232 90.8178 92.296 90.9247 92.1992C91.0315 92.1024 91.1655 92.0406 91.3084 92.0222L97.4822 91.2226C97.886 91.1598 98.2254 91.4475 98.277 91.8347C98.3005 92.021 98.2494 92.209 98.1348 92.3576C98.0203 92.5063 97.8516 92.6035 97.6657 92.6279L91.9794 93.3657L90.2761 100.956C90.2371 101.12 90.141 101.265 90.0049 101.365C89.8689 101.465 89.7017 101.513 89.5334 101.501Z" fill="#EDD9D9"/>
<path opacity="0.24" d="M94.8111 109.903C94.5238 111.753 94.6466 113.31 95.0852 113.378C95.5238 113.445 96.1115 112.001 96.3984 110.151C96.6854 108.302 96.5625 106.746 96.1243 106.677C95.6862 106.609 95.0981 108.053 94.8111 109.903Z" fill="white"/>
<path d="M93.6393 113.531C93.5293 115.008 91.2504 116.043 88.5501 115.841C85.8498 115.64 83.7496 114.278 83.8596 112.799C83.9695 111.321 86.248 110.287 88.9492 110.489C91.6503 110.691 93.7493 112.052 93.6393 113.531Z" fill="#FFD252"/>
<path d="M17.5954 121.393C15.6804 120.098 16.9012 119.121 16.7363 118.561C16.7071 118.47 16.6461 118.392 16.5644 118.342C15.4291 117.588 15.8221 115.208 15.4905 114.815C14.4041 113.527 17.369 112.238 18.3502 111.392C18.9988 110.941 19.5607 110.443 21.5424 109.611C23.1249 108.947 27.5994 109.305 27.8197 109.884C28.6608 112.081 24.7045 112.008 23.1494 112.506C22.609 112.678 21.2163 113.659 20.4478 114.401C21.8048 114.431 24.1628 113.933 25.0674 113.88C26.8102 113.778 30.5312 113.041 31.2413 114.095C31.7959 114.918 29.5862 115.931 26.6878 116.664C25.985 116.842 23.405 117.58 21.7417 118.112C21.758 118.188 25.6938 118.109 26.2522 117.951C27.9052 117.486 31.0158 115.973 31.5854 117.942C31.3732 118.469 27.7729 120.545 26.2157 120.861C25.4322 121.02 24.378 121.227 22.2636 121.472C23.5399 121.626 25.2358 121.728 25.7294 121.721C28.0753 120.626 29.9418 119.914 30.6846 121.182C30.9092 121.564 27.2639 124.135 25.8046 124.308C22.7426 124.671 19.9194 124.619 18.6973 124.108C17.1598 123.465 18.2346 121.826 17.5954 121.393Z" fill="#FFC19F"/>
<path d="M100.009 120.129C101.876 118.954 100.742 117.985 100.917 117.456C100.948 117.37 101.009 117.298 101.089 117.253C102.194 116.571 101.894 114.289 102.222 113.924C103.296 112.731 100.512 111.409 99.6018 110.572C98.997 110.122 98.4772 109.629 96.6145 108.774C95.1265 108.092 90.8505 108.293 90.6215 108.838C89.7516 110.907 93.5254 110.961 94.992 111.483C95.5019 111.665 96.7962 112.644 97.5085 113.376C96.2137 113.362 93.9812 112.813 93.1208 112.734C91.4622 112.583 87.9384 111.764 87.2287 112.746C86.6741 113.514 88.7494 114.548 91.4871 115.337C92.1517 115.528 94.5878 116.313 96.1575 116.873C96.1385 116.944 92.3888 116.746 91.8617 116.578C90.301 116.082 87.3834 114.544 86.779 116.402C86.9645 116.911 90.332 119.003 91.808 119.353C92.5499 119.529 93.5486 119.759 95.5582 120.06C94.3365 120.166 92.7165 120.21 92.2462 120.189C90.0437 119.07 88.2868 118.335 87.5393 119.52C87.3134 119.877 90.7083 122.442 92.0928 122.652C95.0002 123.095 97.6928 123.134 98.8741 122.684C100.36 122.118 99.3866 120.522 100.009 120.129Z" fill="#FFC19F"/>
<g opacity="0.65">
<path opacity="0.65" d="M72.6223 67.6167H89.1081C90.6306 67.6167 91.8647 66.4785 91.8647 65.0744V54.4837C91.8647 53.0788 90.6306 51.9406 89.1081 51.9406H70.0294C68.5066 51.9406 67.272 53.0788 67.272 54.4837V62.73C67.272 63.4131 67.5727 64.0674 68.0993 64.5457L70.6923 66.8902C71.2242 67.3623 71.9115 67.6211 72.6223 67.6167Z" fill="#025AA3"/>
</g>
<path d="M89.1081 68.4775H72.6223C71.6989 68.4829 70.8061 68.1458 70.1162 67.5311L67.5198 65.1854C67.1742 64.8761 66.8971 64.4978 66.7063 64.0749C66.5154 63.652 66.415 63.1937 66.4115 62.7296V54.4833C66.4115 52.6065 68.0336 51.0794 70.029 51.0794H89.1081C91.1035 51.0794 92.726 52.6065 92.726 54.4833V65.0736C92.726 66.9508 91.1035 68.4775 89.1081 68.4775ZM70.029 52.8018C68.9808 52.8018 68.1311 53.5567 68.1311 54.4833V62.7292C68.1311 63.1718 68.3227 63.5895 68.6754 63.9065L71.2687 66.2509C71.6418 66.5814 72.1242 66.7612 72.6223 66.7555H89.1081C90.1563 66.7555 91.0064 66.0006 91.0064 65.0736V54.4833C91.0064 53.5567 90.1563 52.8018 89.1081 52.8018H70.029Z" fill="white"/>
<g opacity="0.65">
<path opacity="0.65" d="M55.2395 67.6167H38.7533C37.2309 67.6167 35.9967 66.4785 35.9967 65.0744V54.4837C35.9967 53.0788 37.2309 51.9406 38.7533 51.9406H57.8325C59.3549 51.9406 60.589 53.0788 60.589 54.4837V62.73C60.589 63.4131 60.2909 64.0674 59.7621 64.5457L57.1696 66.8901C56.6376 67.3622 55.9503 67.6209 55.2395 67.6167Z" fill="#D62209"/>
</g>
<path d="M55.2391 68.4775H38.7528C36.7579 68.4775 35.1354 66.9508 35.1354 65.0736V54.4833C35.1354 52.6065 36.7579 51.0794 38.7528 51.0794H57.8324C59.8278 51.0794 61.4503 52.6065 61.4503 54.4833V62.7292C61.4467 63.1933 61.3463 63.6516 61.1553 64.0745C60.9644 64.4974 60.6872 64.8757 60.3416 65.185L57.7482 67.529C57.0576 68.1447 56.1637 68.4826 55.2391 68.4775ZM38.7528 52.8018C37.7051 52.8018 36.8554 53.5567 36.8554 54.4833V65.0736C36.8554 66.0006 37.7051 66.7555 38.7528 66.7555H55.2391C55.7383 66.7607 56.2218 66.5805 56.5961 66.2497L59.186 63.9065C59.5387 63.5904 59.7303 63.1718 59.7303 62.7292V54.4833C59.7303 53.5567 58.8801 52.8018 57.8324 52.8018H38.7528Z" fill="white"/>
<path d="M35.9967 54.6261H33.5125V60.1464H35.9967V54.6261Z" fill="white"/>
<path d="M94.3489 54.6261H91.8647V60.1464H94.3489V54.6261Z" fill="white"/>
<path d="M66.689 55.871H60.0057V58.9015H66.689V55.871Z" fill="white"/>
<path d="M55.3504 104.541C54.8108 105.617 55.1257 107.43 55.697 108.344C56.6675 109.896 58.5825 110.093 59.5701 108.728C60.0117 108.116 56.8191 106.05 55.3504 104.541Z" fill="#FFB8B6"/>
<path d="M56.0751 106.612C55.9295 107.196 56.4123 108.185 56.9007 108.684C57.7311 109.534 58.9038 109.651 59.269 108.913C59.4326 108.582 57.1954 107.442 56.0751 106.612Z" fill="#E08686"/>
<path d="M73.0085 104.528C73.5373 105.611 73.2057 107.42 72.6257 108.327C71.6403 109.868 69.7235 110.043 68.7492 108.667C68.3123 108.05 71.5243 106.021 73.0085 104.528Z" fill="#FFB8B6"/>
<path d="M72.264 106.591C72.404 107.176 71.9122 108.159 71.4186 108.653C70.5801 109.494 69.4065 109.598 69.0482 108.855C68.8875 108.523 71.1377 107.407 72.264 106.591Z" fill="#E08686"/>
<path d="M70.6303 118.311C68.3171 120.821 62.2206 121.408 58.7801 119.162C56.036 117.372 55.7804 114.102 57.8801 110.542C59.7776 107.326 63.4818 105.249 67.3703 107.307C70.3236 108.871 74.198 114.44 70.6303 118.311Z" fill="#FFB8B6"/>
<path d="M67.6813 115.147C67.6595 115.239 67.6196 115.326 67.564 115.403C67.5084 115.479 67.4382 115.544 67.3575 115.593C67.2768 115.642 67.1871 115.675 67.0936 115.689C67.0002 115.704 66.9049 115.699 66.8131 115.676C66.6277 115.628 66.4689 115.508 66.3713 115.343C66.2736 115.178 66.245 114.981 66.2916 114.794C66.3135 114.702 66.3534 114.616 66.4089 114.539C66.4645 114.463 66.5346 114.398 66.6153 114.349C66.696 114.299 66.7856 114.267 66.879 114.252C66.9724 114.238 67.0677 114.243 67.1594 114.265C67.3449 114.314 67.5038 114.434 67.6015 114.599C67.6993 114.764 67.7279 114.961 67.6813 115.147Z" fill="#773733"/>
<path d="M62.0766 115.03C62.0547 115.122 62.0148 115.209 61.9592 115.286C61.9036 115.362 61.8334 115.427 61.7527 115.476C61.6719 115.525 61.5823 115.558 61.4889 115.572C61.3954 115.586 61.3001 115.582 61.2085 115.559C61.0229 115.51 60.8641 115.391 60.7663 115.225C60.6686 115.06 60.6399 114.863 60.6865 114.677C60.7084 114.585 60.7483 114.498 60.8039 114.422C60.8595 114.345 60.9297 114.281 61.0105 114.231C61.0912 114.182 61.1809 114.15 61.2743 114.135C61.3677 114.121 61.463 114.125 61.5547 114.148C61.7401 114.197 61.899 114.317 61.9967 114.482C62.0944 114.647 62.1231 114.844 62.0766 115.03Z" fill="#773733"/>
<path d="M68.342 110.542C68.2634 110.727 67.961 110.771 67.6667 110.642C67.3724 110.512 67.198 110.257 67.2771 110.073C67.3561 109.888 67.6581 109.844 67.9519 109.974C68.2458 110.103 68.4211 110.357 68.342 110.542Z" fill="#8E4D4C"/>
<path d="M61.401 110.172C61.4439 110.369 61.2265 110.586 60.9138 110.658C60.6011 110.729 60.3124 110.627 60.2695 110.431C60.2265 110.235 60.4439 110.018 60.7566 109.946C61.0693 109.875 61.3571 109.976 61.401 110.172Z" fill="#8E4D4C"/>
<path d="M67.0438 117.226C67.2182 118.593 65.9325 120.01 63.9427 119.997C62.2674 119.987 60.5362 118.253 61.2338 116.831C62.0006 115.267 66.7818 115.171 67.0438 117.226Z" fill="#FFF0F0"/>
<path d="M65.1069 117.643C64.9911 117.662 64.8725 117.659 64.7581 117.633C64.6104 117.599 64.4715 117.535 64.3502 117.444C64.2288 117.353 64.1278 117.238 64.0536 117.106C63.9316 117.359 63.7151 117.586 63.4625 117.692C63.1141 117.837 62.7717 117.732 62.523 117.4C62.5049 117.376 62.4971 117.346 62.5011 117.316C62.5051 117.286 62.5207 117.259 62.5445 117.24C62.5562 117.231 62.5695 117.225 62.5838 117.221C62.5981 117.217 62.6129 117.216 62.6276 117.218C62.6422 117.22 62.6563 117.225 62.669 117.233C62.6817 117.24 62.6928 117.25 62.7017 117.262C62.9384 117.578 63.2 117.555 63.3766 117.481C63.6747 117.356 63.9182 117.008 63.935 116.714C63.9316 116.678 63.9303 116.64 63.9303 116.602C63.9303 116.573 63.9413 116.545 63.9609 116.524C63.9805 116.504 64.0074 116.491 64.0359 116.489C64.0645 116.488 64.0927 116.497 64.1147 116.515C64.1368 116.533 64.151 116.559 64.1545 116.588C64.1596 116.627 64.1615 116.666 64.1601 116.706C64.2031 117.101 64.5136 117.345 64.807 117.41C65.0334 117.459 65.3225 117.41 65.4445 117.12C65.4502 117.106 65.4586 117.094 65.4692 117.083C65.4797 117.073 65.4923 117.065 65.506 117.059C65.5198 117.054 65.5345 117.051 65.5493 117.051C65.5641 117.052 65.5788 117.055 65.5923 117.061C65.6198 117.073 65.6413 117.096 65.6522 117.124C65.6631 117.152 65.6626 117.183 65.6507 117.211C65.6041 117.323 65.5297 117.422 65.4345 117.497C65.3394 117.573 65.2266 117.623 65.1069 117.643Z" fill="#8E4D4C"/>
<path d="M64.9707 115.985C64.9827 116.38 64.2404 116.721 64.039 116.693C63.7958 116.659 63.1205 116.349 63.1085 115.954C63.0965 115.558 64.9587 115.589 64.9707 115.985Z" fill="#773733"/>
</svg>
